<?xml version="1.0" encoding="UTF-8" standalone="no"?>
<!-- Created with Inkscape (http://www.inkscape.org/) -->

<svg
   xmlns:dc="http://purl.org/dc/elements/1.1/"
   xmlns:cc="http://creativecommons.org/ns#"
   xmlns:rdf="http://www.w3.org/1999/02/22-rdf-syntax-ns#"
   xmlns:svg="http://www.w3.org/2000/svg"
   xmlns="http://www.w3.org/2000/svg"
   xmlns:sodipodi="http://sodipodi.sourceforge.net/DTD/sodipodi-0.dtd"
   xmlns:inkscape="http://www.inkscape.org/namespaces/inkscape"
   width="24"
   height="24"
   id="svg3081"
   version="1.1"
   inkscape:version="0.92.2 5c3e80d, 2017-08-06"
   sodipodi:docname="axosynaptic-status.svg"
   viewBox="0 0 24 24">
  <title
     id="title926">AxoSynaptic status icon</title>
  <defs
     id="defs3083" />
  <sodipodi:namedview
     id="base"
     pagecolor="#ffffff"
     bordercolor="#666666"
     borderopacity="1.0"
     inkscape:pageopacity="0.0"
     inkscape:pageshadow="2"
     inkscape:zoom="21.791667"
     inkscape:cx="5.3460804"
     inkscape:cy="17.506692"
     inkscape:document-units="px"
     inkscape:current-layer="layer5"
     showgrid="false"
     showguides="false"
     inkscape:guide-bbox="true"
     inkscape:window-width="1366"
     inkscape:window-height="707"
     inkscape:window-x="0"
     inkscape:window-y="0"
     inkscape:window-maximized="1">
    <sodipodi:guide
       position="0,0"
       orientation="0,512"
       id="guide3089"
       inkscape:locked="false" />
    <sodipodi:guide
       position="512,0"
       orientation="-512,0"
       id="guide3091"
       inkscape:locked="false" />
    <sodipodi:guide
       position="512,512"
       orientation="0,-512"
       id="guide3093"
       inkscape:locked="false" />
    <sodipodi:guide
       position="0,512"
       orientation="512,0"
       id="guide3095"
       inkscape:locked="false" />
    <inkscape:grid
       type="xygrid"
       id="grid3097"
       empspacing="16"
       visible="true"
       enabled="true"
       snapvisiblegridlinesonly="true" />
    <sodipodi:guide
       orientation="1,0"
       position="256,281"
       id="guide3099"
       inkscape:locked="false" />
    <sodipodi:guide
       orientation="0,1"
       position="257,256"
       id="guide3101"
       inkscape:locked="false" />
    <sodipodi:guide
       orientation="0,1"
       position="448,288"
       id="guide4184"
       inkscape:locked="false" />
    <sodipodi:guide
       orientation="0,1"
       position="432,224"
       id="guide4186"
       inkscape:locked="false" />
  </sodipodi:namedview>
  <metadata
     id="metadata3086">
    <rdf:RDF>
      <cc:Work
         rdf:about="">
        <dc:format>image/svg+xml</dc:format>
        <dc:type
           rdf:resource="http://purl.org/dc/dcmitype/StillImage" />
        <dc:title>AxoSynaptic status icon</dc:title>
        <cc:license
           rdf:resource="http://creativecommons.org/publicdomain/zero/1.0/" />
        <dc:date>2017-12-12</dc:date>
        <dc:creator>
          <cc:Agent>
            <dc:title>Joel Barrios</dc:title>
          </cc:Agent>
        </dc:creator>
      </cc:Work>
      <cc:License
         rdf:about="http://creativecommons.org/publicdomain/zero/1.0/">
        <cc:permits
           rdf:resource="http://creativecommons.org/ns#Reproduction" />
        <cc:permits
           rdf:resource="http://creativecommons.org/ns#Distribution" />
        <cc:permits
           rdf:resource="http://creativecommons.org/ns#DerivativeWorks" />
      </cc:License>
    </rdf:RDF>
  </metadata>
  <g
     inkscape:groupmode="layer"
     id="layer5"
     inkscape:label="AxoSynaptic"
     style="display:inline"
     transform="translate(0,-22.875)">
    <g
       id="g924"
       transform="matrix(0.04761902,0,0,0.04761902,-0.19046909,22.446443)">
      <g
         inkscape:label="Synapses"
         id="g848">
        <g
           id="g839">
          <path
             inkscape:connector-curvature="0"
             id="path1418-6-5"
             d="m 85.289602,315.95096 c 10.61923,58.23245 71.790298,111.44225 138.390208,120.37909 l 18.04357,2.42121 v 25.18705 25.18703 h 17.47018 17.47018 v -25.24757 -25.24758 l 16.3783,-2.57295 c 66.54219,-10.45345 128.46704,-66.04633 135.28097,-121.44822 l 2.42687,-19.7322 h -15.89742 c -14.7074,0 -15.89744,0.81279 -15.89744,10.85772 0,21.18946 -17.77678,52.18373 -41.20687,71.8453 -66.94892,56.18083 -181.47145,42.43192 -226.63972,-27.20904 -6.62791,-10.21899 -13.22297,-26.88563 -14.65568,-37.03698 -2.60479,-18.45584 -2.60596,-18.457 -18.805588,-18.457 h -16.20063 z"
             style="display:inline;fill:#9ab271;fill-opacity:1;stroke:#5a6943;stroke-width:5.74931955;stroke-miterlimit:4;stroke-dasharray:none;stroke-opacity:1" />
          <path
             inkscape:connector-curvature="0"
             id="path5177"
             d="m 162.41751,255.16934 c 0,-26.46519 0.36867,-47.96852 0.81927,-47.78519 2.71207,1.10345 80.17057,47.44998 80.17514,47.97201 0.005,0.52289 -71.15514,42.77143 -78.74441,46.75167 l -2.25,1.18002 z"
             style="fill:#9ab271;fill-opacity:1;stroke:#5a6943;stroke-width:1.43700004;stroke-miterlimit:4;stroke-dasharray:none;stroke-opacity:1" />
          <path
             inkscape:connector-curvature="0"
             id="path1418-6-5-6"
             d="M 85.289607,206.04874 C 95.90884,147.81629 157.07991,94.606492 223.67982,85.669642 l 18.04357,-2.4212 V 58.061392 32.874361 h 17.47017 17.47018 v 25.247571 25.24758 l 16.3783,2.57295 c 66.54219,10.45345 128.46704,66.046318 135.28097,121.448218 l 2.42687,19.7322 h -15.89742 c -14.7074,0 -15.89744,-0.81279 -15.89744,-10.85772 0,-21.18946 -17.77678,-52.18373 -41.20687,-71.8453 -66.94892,-56.180828 -181.47144,-42.43192 -226.63971,27.20904 -6.62791,10.21899 -13.22297,26.88563 -14.65568,37.03698 -2.60479,18.45584 -2.60596,18.457 -18.80559,18.457 H 81.446537 Z"
             style="display:inline;fill:#9ab271;fill-opacity:1;stroke:#5a6943;stroke-width:5.74931955;stroke-miterlimit:4;stroke-dasharray:none;stroke-opacity:1" />
        </g>
      </g>
      <g
         inkscape:label="Logo"
         id="g67"
         transform="matrix(4.8095238,0,0,4.8095238,140.5728,137.94695)"
         style="display:inline">
        <path
           inkscape:connector-curvature="0"
           style="opacity:0.19444442;fill:none;stroke:#ffffff;stroke-width:1px;stroke-linecap:round;stroke-linejoin:miter;stroke-opacity:1"
           d="m 37.756513,11.747296 c 0,0 5.140615,5.035338 5.157002,12.720854 0.01653,7.751769 -5.355349,12.985871 -5.355349,12.985871"
           id="path5667"
           sodipodi:nodetypes="czc" />
        <path
           inkscape:connector-curvature="0"
           style="opacity:0.18981479;fill:none;stroke:#ffffff;stroke-width:1px;stroke-linecap:round;stroke-linejoin:miter;stroke-opacity:1"
           d="m 30.616047,16.915142 c 0,0 3.686577,2.501111 3.636349,7.685516 -0.04959,5.118158 -3.636349,7.28799 -3.636349,7.28799"
           id="path5669"
           sodipodi:nodetypes="czc" />
        <path
           inkscape:connector-curvature="0"
           style="fill:#87a556;fill-opacity:1;fill-rule:evenodd;stroke:#5a6943;stroke-width:0.99999988px;stroke-linecap:butt;stroke-linejoin:miter;stroke-opacity:1"
           d="M 3.033391,11.648109 24.671136,24.418378 3.016816,37.198431 Z"
           id="path5070" />
        <path
           inkscape:connector-curvature="0"
           style="opacity:0.18055558;fill:none;stroke:#eeeeec;stroke-width:0.99999988px;stroke-linecap:butt;stroke-linejoin:miter;stroke-opacity:1"
           d="M 4.04192,13.453223 22.5645,24.420891 4.027734,35.311401 Z"
           id="path5665"
           sodipodi:nodetypes="cccc" />
        <path
           inkscape:connector-curvature="0"
           style="opacity:0.32407406;fill:none;stroke:#ffffff;stroke-width:1px;stroke-linecap:round;stroke-linejoin:miter;stroke-opacity:1"
           d="m 38.153525,11.23664 c 0,0 5.427094,5.46394 5.427094,13.24865 0,7.850944 -5.427094,13.182407 -5.427094,13.182407"
           id="path5689"
           sodipodi:nodetypes="czc" />
        <path
           inkscape:connector-curvature="0"
           style="opacity:0.32407406;fill:none;stroke:#ffffff;stroke-width:1px;stroke-linecap:round;stroke-linejoin:miter;stroke-opacity:1"
           d="m 33.305222,17.049165 c 0,0 2.779731,2.878431 2.779731,7.220514 0,4.27587 -2.514994,7.220514 -2.514994,7.220514"
           id="path5691"
           sodipodi:nodetypes="czc" />
        <path
           inkscape:connector-curvature="0"
           style="fill:#87a556;fill-opacity:1;stroke:#5a6943;stroke-width:1;stroke-linecap:round;stroke-linejoin:round;stroke-miterlimit:4;stroke-dasharray:none;stroke-dashoffset:0;stroke-opacity:1"
           d="m 44.983184,24.545684 c 0,-11.316001 -9.170001,-20.5 -20.46875,-20.5 -6.524212,0 -12.313471,3.0771446 -16.0625,7.84375 l 2.5625,1.625 c 3.198502,-3.9147617 8.085497,-6.40625 13.53125,-6.40625 9.625499,-10e-8 17.4375,7.812 17.4375,17.4375 0,9.6255 -7.812,17.4375 -17.4375,17.4375 -5.430049,0 -10.301145,-2.47967 -13.5,-6.375 l -2.5625,1.625 c 3.749919,4.746873 9.522794,7.8125 16.03125,7.8125 11.29875,0 20.46875,-9.183999 20.46875,-20.5 z"
           id="path5067" />
        <path
           inkscape:connector-curvature="0"
           style="fill:#87a556;fill-opacity:1;stroke:#5a6943;stroke-width:1;stroke-linecap:round;stroke-linejoin:round;stroke-miterlimit:4;stroke-dasharray:none;stroke-dashoffset:0;stroke-opacity:1"
           d="m 37.045684,24.576934 c 0,-6.91725 -5.614001,-12.53125 -12.53125,-12.53125 -3.682751,0 -6.987847,1.592947 -9.28125,4.125 l 2.65625,1.65625 c 1.708502,-1.687387 4.044211,-2.71875 6.625,-2.71875 5.226749,0 9.46875,4.27 9.46875,9.53125 0,5.261251 -4.242001,9.53125 -9.46875,9.53125 -2.628895,10e-7 -5.002549,-1.069255 -6.71875,-2.8125 l -2.5625,1.625 c 2.293403,2.532054 5.598499,4.125001 9.28125,4.125 6.91725,0 12.53125,-5.614 12.53125,-12.53125 z"
           id="path5648" />
        <path
           inkscape:connector-curvature="0"
           style="opacity:0.33333333;fill:none;stroke:#eeeeec;stroke-width:1.00000012;stroke-linecap:round;stroke-linejoin:round;stroke-miterlimit:4;stroke-dasharray:none;stroke-dashoffset:0;stroke-opacity:1"
           d="m 10.045238,37.420684 c 3.560547,4.071766 8.326523,6.5625 14.45318,6.5625 10.721091,0 19.422266,-8.721999 19.422266,-19.46875 0,-10.74675 -8.701175,-19.46875 -19.422266,-19.46875 -6.157926,0 -10.831105,2.5141711 -14.452732,6.6875"
           id="path5664"
           sodipodi:nodetypes="cscsc" />
        <path
           inkscape:connector-curvature="0"
           style="opacity:0.33333333;fill:none;stroke:#eeeeec;stroke-width:1;stroke-linecap:round;stroke-linejoin:round;stroke-miterlimit:4;stroke-dasharray:none;stroke-dashoffset:0;stroke-opacity:1"
           d="m 16.826934,33.201934 c 2.164413,1.898506 4.331161,2.843749 7.625,2.84375 6.36525,0 11.53125,-5.152 11.53125,-11.5 0,-6.348 -5.166,-11.5 -11.53125,-11.5 -3.309727,0 -5.552652,1.207783 -7.65625,3.125"
           id="path5677"
           sodipodi:nodetypes="cscsc" />
      </g>
    </g>
  </g>
</svg>
