<?xml version="1.0" encoding="UTF-8" standalone="no"?>
<!-- Created with Inkscape (http://www.inkscape.org/) -->

<svg
   xmlns:dc="http://purl.org/dc/elements/1.1/"
   xmlns:cc="http://creativecommons.org/ns#"
   xmlns:rdf="http://www.w3.org/1999/02/22-rdf-syntax-ns#"
   xmlns:svg="http://www.w3.org/2000/svg"
   xmlns="http://www.w3.org/2000/svg"
   xmlns:sodipodi="http://sodipodi.sourceforge.net/DTD/sodipodi-0.dtd"
   xmlns:inkscape="http://www.inkscape.org/namespaces/inkscape"
   width="24"
   height="24"
   id="svg3081"
   version="1.1"
   inkscape:version="0.92.2 5c3e80d, 2017-08-06"
   sodipodi:docname="axosynaptic-status-dark.svg"
   viewBox="0 0 24 24">
  <title
     id="title952">AxoSynaptic status icon dark</title>
  <defs
     id="defs3083" />
  <sodipodi:namedview
     id="base"
     pagecolor="#ffffff"
     bordercolor="#666666"
     borderopacity="1.0"
     inkscape:pageopacity="0.0"
     inkscape:pageshadow="2"
     inkscape:zoom="21.791667"
     inkscape:cx="12"
     inkscape:cy="12"
     inkscape:document-units="px"
     inkscape:current-layer="layer5"
     showgrid="false"
     showguides="false"
     inkscape:guide-bbox="true"
     inkscape:window-width="1366"
     inkscape:window-height="707"
     inkscape:window-x="0"
     inkscape:window-y="0"
     inkscape:window-maximized="1">
    <sodipodi:guide
       position="0,0"
       orientation="0,512"
       id="guide3089"
       inkscape:locked="false" />
    <sodipodi:guide
       position="512,0"
       orientation="-512,0"
       id="guide3091"
       inkscape:locked="false" />
    <sodipodi:guide
       position="512,512"
       orientation="0,-512"
       id="guide3093"
       inkscape:locked="false" />
    <sodipodi:guide
       position="0,512"
       orientation="512,0"
       id="guide3095"
       inkscape:locked="false" />
    <inkscape:grid
       type="xygrid"
       id="grid3097"
       empspacing="16"
       visible="true"
       enabled="true"
       snapvisiblegridlinesonly="true" />
    <sodipodi:guide
       orientation="1,0"
       position="256,281"
       id="guide3099"
       inkscape:locked="false" />
    <sodipodi:guide
       orientation="0,1"
       position="257,256"
       id="guide3101"
       inkscape:locked="false" />
    <sodipodi:guide
       orientation="0,1"
       position="448,288"
       id="guide4184"
       inkscape:locked="false" />
    <sodipodi:guide
       orientation="0,1"
       position="432,224"
       id="guide4186"
       inkscape:locked="false" />
  </sodipodi:namedview>
  <metadata
     id="metadata3086">
    <rdf:RDF>
      <cc:Work
         rdf:about="">
        <dc:format>image/svg+xml</dc:format>
        <dc:type
           rdf:resource="http://purl.org/dc/dcmitype/StillImage" />
        <dc:title>AxoSynaptic status icon dark</dc:title>
        <cc:license
           rdf:resource="http://creativecommons.org/publicdomain/zero/1.0/" />
        <dc:date>2017-12-12</dc:date>
        <dc:creator>
          <cc:Agent>
            <dc:title>Joel Barrios</dc:title>
          </cc:Agent>
        </dc:creator>
      </cc:Work>
      <cc:License
         rdf:about="http://creativecommons.org/publicdomain/zero/1.0/">
        <cc:permits
           rdf:resource="http://creativecommons.org/ns#Reproduction" />
        <cc:permits
           rdf:resource="http://creativecommons.org/ns#Distribution" />
        <cc:permits
           rdf:resource="http://creativecommons.org/ns#DerivativeWorks" />
      </cc:License>
    </rdf:RDF>
  </metadata>
  <g
     inkscape:groupmode="layer"
     id="layer5"
     inkscape:label="AxoSynaptic"
     style="display:inline"
     transform="translate(0,-488)">
    <g
       id="g950"
       transform="matrix(0.04756746,0,0,0.04756746,-0.18563513,487.59681)">
      <path
         inkscape:connector-curvature="0"
         id="path1418-6-5"
         d="m 85.289602,315.95096 c 10.61923,58.23245 71.790298,111.44225 138.390208,120.37909 l 18.04357,2.42121 v 25.18705 25.18703 h 17.47018 17.47018 v -25.24757 -25.24758 l 16.3783,-2.57295 c 66.54219,-10.45345 128.46704,-66.04633 135.28097,-121.44822 l 2.42687,-19.7322 h -15.89742 c -14.7074,0 -15.89744,0.81279 -15.89744,10.85772 0,21.18946 -17.77678,52.18373 -41.20687,71.8453 -66.94892,56.18083 -181.47145,42.43192 -226.63972,-27.20904 -6.62791,-10.21899 -13.22297,-26.88563 -14.65568,-37.03698 -2.60479,-18.45584 -2.60596,-18.457 -18.805588,-18.457 h -16.20063 z"
         style="display:inline;fill:#ececec;fill-opacity:1;stroke:#ececec;stroke-width:5.74931955;stroke-miterlimit:4;stroke-dasharray:none;stroke-opacity:1" />
      <path
         inkscape:connector-curvature="0"
         id="path5177"
         d="m 162.41751,255.16934 c 0,-26.46519 0.36867,-47.96852 0.81927,-47.78519 2.71207,1.10345 80.17057,47.44998 80.17514,47.97201 0.005,0.52289 -71.15514,42.77143 -78.74441,46.75167 l -2.25,1.18002 z"
         style="fill:#ececec;fill-opacity:1;stroke:#ececec;stroke-width:1.43700004;stroke-miterlimit:4;stroke-dasharray:none;stroke-opacity:1" />
      <path
         inkscape:connector-curvature="0"
         id="path1418-6-5-6"
         d="M 85.289607,206.04874 C 95.90884,147.81629 157.07991,94.606492 223.67982,85.669642 l 18.04357,-2.4212 V 58.061392 32.874361 h 17.47017 17.47018 v 25.247571 25.24758 l 16.3783,2.57295 c 66.54219,10.45345 128.46704,66.046318 135.28097,121.448218 l 2.42687,19.7322 h -15.89742 c -14.7074,0 -15.89744,-0.81279 -15.89744,-10.85772 0,-21.18946 -17.77678,-52.18373 -41.20687,-71.8453 -66.94892,-56.180828 -181.47144,-42.43192 -226.63971,27.20904 -6.62791,10.21899 -13.22297,26.88563 -14.65568,37.03698 -2.60479,18.45584 -2.60596,18.457 -18.80559,18.457 H 81.446537 Z"
         style="display:inline;fill:#ececec;fill-opacity:1;stroke:#ececec;stroke-width:5.74931955;stroke-miterlimit:4;stroke-dasharray:none;stroke-opacity:1" />
      <path
         inkscape:connector-curvature="0"
         id="path843"
         d="m 85.56699,222.90619 c 0,-3.9189 5.257513,-27.32719 7.440022,-33.12558 8.264948,-21.95795 21.559978,-40.7732 41.654138,-58.94931 19.14901,-17.32118 47.46279,-32.478907 71.90584,-38.494655 6.99787,-1.722267 33.62345,-6.119155 37.05485,-6.119155 0.56833,0 0.94515,-9.967196 0.94515,-25 v -25 h 14.5 14.5 v 25 c 0,13.75 0.3253,25 0.72288,25 0.39759,0 7.48509,1.166413 15.75,2.592028 40.31794,6.954443 73.25686,24.406952 100.86524,53.442892 20.67774,21.74694 31.55821,43.90735 34.96566,71.21508 l 1.34138,10.75 -9.57258,-0.0997 c -14.87319,-0.15488 -14.34709,0.21174 -15.73874,-10.96774 -1.38238,-11.10505 -4.02269,-19.40039 -9.66489,-30.36529 -13.61748,-26.46381 -35.4044,-47.08084 -63.99547,-60.5591 -12.46728,-5.87726 -20.0482,-8.48906 -33.67348,-11.60127 -36.50298,-8.33781 -76.86331,-3.9435 -110.66353,12.0487 -30.28899,14.33091 -53.56345,37.79994 -64.35633,64.89434 -3.26316,8.19182 -6.39892,19.8814 -7.44805,27.76503 -1.05423,7.92207 -1.72383,8.31336 -14.944223,8.73303 -9.885812,0.31382 -11.587867,0.14354 -11.587867,-1.1593 z"
         style="fill:#ececec;fill-opacity:1;stroke:#ececec;stroke-width:1.43700004;stroke-miterlimit:4;stroke-dasharray:none;stroke-opacity:1" />
      <path
         inkscape:connector-curvature="0"
         id="path845"
         d="m 78.56699,228.89074 c 0,-2.48097 6.529265,-32.96901 8.082077,-37.73881 12.192742,-37.45265 46.118273,-73.5425 87.417923,-92.994859 17.40998,-8.200195 33.99964,-12.864861 56.75,-15.956922 l 8.75,-1.189235 V 55.614202 30.21749 h 20 20 v 25.480948 25.480948 l 2.25,0.443661 c 1.2375,0.244013 7.65,1.401008 14.25,2.5711 51.92693,9.205947 102.26167,45.545413 124.00111,89.523343 6.35434,12.85453 8.91495,21.56908 11.00678,37.45947 0.83557,6.34729 1.7585,13.00303 2.05097,14.79053 l 0.53177,3.25 h -15.62224 -15.62224 l -2.92307,-2.92308 c -2.57208,-2.57208 -2.92308,-3.63357 -2.92308,-8.84003 0,-21.56262 -17.5988,-52.1885 -41.14769,-71.60625 -25.23331,-20.80668 -55.51,-31.8369 -91.48523,-33.32933 -41.06264,-1.70348 -80.25028,10.99482 -108.47323,35.14949 -20.07948,17.18508 -32.31515,38.36398 -36.91169,63.89101 -2.13268,11.84389 -3.66235,15.2059 -7.59956,16.70282 -2.24059,0.85188 -32.3826,1.437 -32.3826,0.62862 z m 31.62823,-6.82678 c 2.86692,-14.09727 4.96409,-22.72363 7.00953,-28.83246 13.11943,-39.18217 49.9266,-69.96838 97.86224,-81.85381 15.51786,-3.84758 22.72912,-4.63287 42.5,-4.62811 16.30899,0.004 21.35922,0.3783 30.86152,2.28783 45.71672,9.18699 80.33411,32.55808 101.23597,68.34701 7.97996,13.66357 13.74329,32.75639 12.37031,40.98044 -0.3628,2.17314 -0.17547,3.91527 0.46347,4.31015 0.58981,0.36453 6.28181,0.85532 12.64887,1.09065 l 11.57648,0.42788 -0.80953,-6.73802 c -0.44525,-3.70592 -0.81799,-8.38256 -0.82831,-10.39254 -0.0103,-2.00998 -0.42652,-3.40251 -0.92488,-3.09451 -0.52013,0.32146 -0.62722,-0.89062 -0.2514,-2.84549 0.38776,-2.01694 0.30508,-2.86293 -0.20277,-2.07483 -1.09764,1.70338 -2.3773,-4.04799 -1.4426,-6.48377 0.46813,-1.21993 0.28211,-1.45209 -0.68471,-0.85456 -0.99586,0.61547 -1.18651,0.28139 -0.7632,-1.33734 0.36516,-1.39639 0.18436,-1.92296 -0.51242,-1.49232 -0.68102,0.42089 -0.84202,0.0539 -0.43812,-0.99863 0.35167,-0.91645 0.15532,-1.66404 -0.43705,-1.66404 -0.60628,0 -0.78769,-0.75029 -0.41577,-1.71952 0.36292,-0.94573 0.35443,-1.4141 -0.0189,-1.04082 -0.37328,0.37329 -2.23204,-2.56543 -4.13056,-6.53048 -5.56448,-11.62136 -13.93821,-23.30924 -24.72174,-34.50609 -16.90011,-17.54787 -34.12316,-30.07188 -53.29477,-38.75413 -5.07104,-2.29652 -8.97854,-4.417019 -8.68333,-4.712224 0.2952,-0.295205 -0.0558,-0.510846 -0.77993,-0.479202 -3.15903,0.13804 -4.89381,-0.323696 -4.37431,-1.164275 0.30822,-0.498708 -0.41059,-0.652822 -1.59735,-0.342477 -1.38267,0.361576 -1.92148,0.181971 -1.5,-0.5 0.42148,-0.681971 -0.11733,-0.861575 -1.5,-0.5 -1.38267,0.361576 -1.92148,0.181971 -1.5,-0.5 0.42148,-0.681971 -0.11733,-0.861575 -1.5,-0.5 -1.38267,0.361576 -1.92148,0.181971 -1.5,-0.5 0.42148,-0.681971 -0.11733,-0.861575 -1.5,-0.5 -1.51523,0.396241 -1.93735,0.207649 -1.41759,-0.63334 0.53998,-0.873711 10e-4,-1.012096 -1.99278,-0.511681 -1.98053,0.497082 -2.53116,0.359425 -2,-0.5 0.53115,-0.859425 -0.0195,-0.997081 -2,-0.5 -1.91412,0.480413 -2.52356,0.347127 -2.03408,-0.44486 0.48981,-0.792532 -0.28819,-0.960539 -2.60085,-0.561651 -2.61859,0.451655 -2.99008,0.331817 -1.79971,-0.580564 1.23344,-0.945389 1.11253,-1.041156 -0.68038,-0.538903 -1.81107,0.507342 -12.48688,-0.957749 -22.05218,-3.026324 -2.22794,-0.48181 -2.23312,-0.534027 -2.5,-25.218134 l -0.2674,-24.735325 h -14 -14 l -0.26744,24.735325 c -0.26698,24.693545 -0.27121,24.736093 -2.5,25.190339 -7.475,1.523466 -18.75392,2.679166 -19.80533,2.029362 -0.84765,-0.523879 -0.98164,-0.352084 -0.42626,0.546538 0.63401,1.025849 0.0109,1.180914 -2.8679,0.713743 -2.49732,-0.405259 -3.4646,-0.251738 -3.01343,0.478275 0.43909,0.710458 -0.38334,0.921329 -2.42478,0.62171 -1.69908,-0.249372 -2.86144,-0.08483 -2.58303,0.365652 0.27841,0.450481 -0.53285,0.821841 -1.80281,0.825246 -1.26996,0.0034 -7.46569,1.771764 -13.76828,3.929689 -6.30259,2.157924 -11.88462,3.66061 -12.40451,3.339301 -0.51988,-0.321308 -0.65125,-0.108503 -0.29193,0.4729 0.77009,1.24602 -5.08034,3.53309 -6.61368,2.58544 -0.65074,-0.40219 -0.73344,-0.1471 -0.22108,0.68191 0.59931,0.96971 0.35895,1.14808 -0.89743,0.66596 -1.15642,-0.44376 -1.48251,-0.28071 -1,0.5 0.4825,0.78072 0.15641,0.94376 -1,0.5 -1.15642,-0.44376 -1.48251,-0.28071 -1,0.5 0.4825,0.78072 0.15641,0.94376 -1,0.5 -0.94584,-0.36295 -1.46176,-0.24713 -1.14953,0.25807 0.5611,0.90787 -3.19992,2.66301 -4.78691,2.23389 -0.45338,-0.1226 -0.49206,0.31472 -0.0859,0.97181 0.52079,0.84265 0.18332,0.98172 -1.14519,0.47193 -1.03596,-0.39754 -1.59509,-0.43432 -1.2425,-0.0817 0.35258,0.35258 -3.93613,3.70313 -9.53048,7.44566 -10.80087,7.22561 -22.79337,17.43978 -29.67336,25.27318 -2.29656,2.61482 -4.65518,4.45779 -5.24138,4.0955 -0.5862,-0.3623 -0.81771,-0.25169 -0.51447,0.24579 0.30325,0.49748 -2.27315,4.65464 -5.72533,9.23813 -7.32044,9.71943 -15.349271,24.62291 -18.798759,34.8951 -1.335106,3.9758 -2.658466,6.99773 -2.9408,6.71539 -0.282334,-0.28233 -0.282515,0.69412 -4.02e-4,2.1699 0.352018,1.84146 0.157325,2.46346 -0.620601,1.98268 -0.685708,-0.42379 -0.933727,-0.17988 -0.627785,0.6174 0.502044,1.3083 -2.816922,18.82528 -3.898405,20.57516 -0.332212,0.53753 4.637322,0.80841 12.079877,0.65845 9.640625,-0.19424 12.709325,-0.57461 12.918105,-1.60123 z"
         style="fill:#ececec;fill-opacity:1;stroke:#ececec;stroke-width:1.43700004;stroke-miterlimit:4;stroke-dasharray:none;stroke-opacity:1" />
      <path
         inkscape:connector-curvature="0"
         id="path847"
         d=""
         style="fill:#ececec;fill-opacity:1;stroke:#ececec;stroke-width:1.43700004;stroke-miterlimit:4;stroke-dasharray:none;stroke-opacity:1" />
      <path
         inkscape:connector-curvature="0"
         id="path849"
         d="m 162.56699,255.2186 v -48.11693 l 5.80727,3.30791 c 18.20225,10.36827 75.14868,44.40419 75.16885,44.92714 0.0168,0.43635 -68.62452,41.14814 -80.22612,47.58282 -0.4125,0.22879 -0.75,-21.23663 -0.75,-47.70094 z"
         style="fill:#ececec;fill-opacity:1;stroke:#ececec;stroke-width:1.43700004;stroke-miterlimit:4;stroke-dasharray:none;stroke-opacity:1" />
      <path
         inkscape:connector-curvature="0"
         id="path851"
         d="m 244.33416,461.04662 -0.26717,-25.17087 -15.5,-2.23136 c -8.525,-1.22724 -18.30893,-2.96175 -21.74206,-3.85445 -50.48808,-13.12817 -95.79301,-51.04868 -112.391597,-94.07245 -2.839013,-7.35876 -6.760078,-22.92261 -8.37681,-33.25 l -0.665329,-4.25 h 11.51647 c 8.689586,0 11.869896,0.35342 12.956286,1.43982 0.7919,0.7919 1.99745,5.1794 2.67901,9.75 1.61896,10.85692 5.99907,24.01911 11.55234,34.71459 17.59855,33.89447 54.42891,59.13964 99.64419,68.30056 9.87127,1.99999 14.22003,2.29001 33.8275,2.25595 19.53536,-0.0339 23.8835,-0.33785 33,-2.30658 44.72601,-9.65869 77.6455,-32.33241 98.93687,-68.14403 6.72004,-11.30297 10.79364,-22.8954 12.23208,-34.80942 0.64418,-5.33549 1.6572,-10.0315 2.25114,-10.43558 0.59395,-0.40408 5.91741,-0.74158 11.82991,-0.75 l 10.75,-0.0153 v 2.62166 c 0,5.86986 -3.23998,23.8582 -5.59869,31.08393 -12.18644,37.33212 -50.91544,74.70396 -95.04851,91.71778 -12.59276,4.85465 -21.68958,7.22724 -37.95174,9.89837 l -13.90106,2.28332 -0.26717,25.19747 -0.26717,25.19747 h -14.46566 -14.46566 z"
         style="fill:#ececec;fill-opacity:1;stroke:#ececec;stroke-width:1.43700004;stroke-miterlimit:4;stroke-dasharray:none;stroke-opacity:1" />
      <path
         inkscape:connector-curvature="0"
         id="path853"
         d="m 239.56699,466.23654 v -24.98095 l -2.25,-0.48966 c -1.2375,-0.26931 -7.15828,-1.18637 -13.1573,-2.03792 -13.54622,-1.92285 -24.30475,-4.63296 -36.5927,-9.2178 -46.96907,-17.52498 -86.3217,-55.66672 -100.564724,-97.47029 -1.886929,-5.53818 -8.435276,-36.21801 -8.435276,-39.52034 0,-0.2814 7.236985,-0.352 16.082188,-0.15687 l 16.082192,0.35478 2.82972,3.16719 c 1.92198,2.15119 3.1706,5.03828 3.89237,9 5.02351,27.57374 12.80985,43.6834 29.56392,61.16668 39.26445,40.97338 105.91662,54.91305 164.95778,34.49936 32.38233,-11.19631 59.71578,-34.25068 74.84605,-63.12882 5.77118,-11.01507 8.62616,-20.32945 9.66736,-31.5398 0.91813,-9.88523 1.80336,-11.34928 7.68771,-12.71433 3.72822,-0.86487 29.39071,-1.35965 29.39071,-0.56665 0,5.04306 -4.72357,32.83121 -6.60722,38.86938 -9.10089,29.17363 -31.81061,57.42791 -62.89278,78.24801 -24.07467,16.12619 -47.88948,25.40928 -75.75,29.52759 l -8.75,1.29342 v 25.33898 25.33899 h -20 -20 z m 33.76687,-5.62535 0.26687,-25.1063 10.73313,-1.73652 c 22.98602,-3.71891 36.26552,-7.68912 53.73313,-16.06475 30.52245,-14.63537 56.33182,-37.5848 72.47433,-64.44342 4.84753,-8.06553 11.02567,-22.39317 11.02567,-25.56947 0,-0.8752 0.38499,-1.35333 0.85554,-1.06252 0.47055,0.29082 0.63031,-0.64951 0.35501,-2.08961 -0.34131,-1.78545 -0.14109,-2.39622 0.6294,-1.92002 0.79147,0.48915 0.95945,-0.29008 0.5608,-2.60138 -0.45061,-2.61252 -0.33071,-2.98732 0.57573,-1.79971 0.91402,1.19754 1.03473,0.89508 0.59864,-1.5 -0.48431,-2.65992 -0.0187,-6.88561 1.87298,-17 0.3086,-1.65 0.30495,-2.46278 -0.008,-1.80618 -0.31306,0.65661 -1.10263,1.03201 -1.7546,0.83423 -2.93448,-0.89017 -17.06498,-1.34086 -15.1855,-0.48434 1.47773,0.67343 0.69432,0.86069 -3,0.7171 l -5,-0.19433 -0.10553,6.96676 c -0.152,10.03388 -2.77814,19.42487 -8.93933,31.96676 -6.71235,13.66384 -15.51068,25.4508 -27.66128,37.05727 -19.21769,18.3571 -42.65875,30.45861 -72.79386,37.58002 -8.49901,2.00845 -12.18686,2.2512 -35,2.30386 -28.60641,0.066 -32.99848,-0.54094 -54.25567,-7.49778 -36.24809,-11.86293 -64.98725,-34.76291 -79.74028,-63.53876 -6.15229,-12.00009 -13.05562,-35.22187 -11.59907,-39.01758 0.36587,-0.95344 0.15896,-1.23556 -0.57396,-0.7826 -0.77953,0.48178 -0.9656,0.0182 -0.5818,-1.44944 0.31034,-1.18676 0.15623,-1.90557 -0.34248,-1.59735 -0.49871,0.30822 -0.90674,0.0838 -0.90674,-0.49862 0,-0.58246 -1.37656,-1.05902 -3.05902,-1.05902 -1.68246,0 -2.84891,-0.3375 -2.59211,-0.75 0.45919,-0.73762 -14.755898,-0.54164 -16.996183,0.21892 -0.848739,0.28814 -0.782642,2.29464 0.253986,7.71029 0.770715,4.02643 1.17966,7.90666 0.908768,8.62273 -0.298218,0.78829 -0.04095,1.02284 0.652112,0.59451 0.813872,-0.503 0.9594,0.21879 0.503603,2.49777 -0.364868,1.82434 -0.251765,2.96462 0.26253,2.64676 1.157116,-0.71513 2.451837,5.02621 1.485902,6.58913 -0.488023,0.78964 -0.295377,0.91116 0.583427,0.36803 0.977451,-0.6041 1.168139,-0.26064 0.747767,1.34687 -0.310345,1.18676 -0.223045,1.94686 0.194,1.68912 0.417046,-0.25775 1.32649,1.42913 2.020986,3.74862 5.536502,18.49087 28.981322,48.54894 50.253632,64.429 3.69566,2.75887 6.39566,5.33985 6,5.73552 -0.39567,0.39567 -0.2694,0.62861 0.2806,0.51764 2.14072,-0.4319 3.58884,0.0823 2.98469,1.05987 -0.34834,0.56362 -0.2624,0.96033 0.19098,0.88158 2.13047,-0.3701 3.37668,0.19991 2.72884,1.24815 -0.41714,0.67495 -0.27674,0.88456 0.33801,0.50462 1.29182,-0.79839 14.49725,6.76777 13.51912,7.7459 -0.38537,0.38537 0.14692,0.37542 1.18289,-0.0221 1.30195,-0.4996 1.66248,-0.36507 1.16758,0.4357 -0.48251,0.78071 -0.15642,0.94376 1,0.5 1.25638,-0.48212 1.49674,-0.30375 0.89743,0.66596 -0.52436,0.84843 -0.43055,1.08464 0.26102,0.65723 1.2682,-0.78379 6.22944,1.26916 6.22944,2.57773 0,0.49418 0.3933,0.65543 0.874,0.35834 0.4807,-0.29708 3.6232,0.57695 6.98335,1.94229 3.36014,1.36535 10.16553,3.53318 15.12309,4.81739 4.95755,1.28422 8.80744,2.54124 8.55529,2.79338 -0.25214,0.25215 1.21167,0.2968 3.25292,0.0992 2.68927,-0.26028 3.31257,-0.0849 2.26332,0.63672 -1.01319,0.69685 -0.14142,0.82067 2.90309,0.41231 3.42794,-0.45978 4.17976,-0.30636 3.54351,0.72311 -0.54317,0.87887 -0.41706,1.06535 0.38518,0.56954 0.65602,-0.40545 5.22555,-0.18607 10.15451,0.4875 l 8.96174,1.22468 v 24.69132 c 0,13.58022 0.31213,25.00345 0.69363,25.38494 0.38149,0.3815 6.79399,0.569 14.25,0.41667 l 13.55637,-0.27694 z"
         style="fill:#ececec;fill-opacity:1;stroke:#ececec;stroke-width:1.43700004;stroke-miterlimit:4;stroke-dasharray:none;stroke-opacity:1" />
      <path
         inkscape:connector-curvature="0"
         id="path855"
         d=""
         style="fill:#ececec;fill-opacity:1;stroke:#ececec;stroke-width:1.43700004;stroke-miterlimit:4;stroke-dasharray:none;stroke-opacity:1" />
      <path
         inkscape:connector-curvature="0"
         id="path857"
         d="m 162.56699,255.2186 v -48.11693 l 5.80727,3.30791 c 18.20225,10.36827 75.14868,44.40419 75.16885,44.92714 0.0168,0.43635 -68.62452,41.14814 -80.22612,47.58282 -0.4125,0.22879 -0.75,-21.23663 -0.75,-47.70094 z"
         style="fill:#ececec;fill-opacity:1;stroke:#ececec;stroke-width:1.43700004;stroke-miterlimit:4;stroke-dasharray:none;stroke-opacity:1" />
      <path
         inkscape:connector-curvature="0"
         id="path859"
         d="m 153.56699,255.62399 c 0,-35.42357 0.17301,-64.4065 0.38447,-64.4065 0.69829,0 106.08945,62.23516 107.32922,63.37962 0.91848,0.84786 -12.03382,8.94198 -53.25,33.27688 l -54.46369,32.15651 z m 53.41756,28.0935 c 35.68114,-21.03707 47.19154,-28.27565 46.28673,-29.10846 -1.07219,-0.98688 -87.8615,-52.31796 -93.45429,-55.27306 l -2.25,-1.18885 v 57.11852 c 0,36.19122 0.35293,56.99639 0.96327,56.78518 0.5298,-0.18333 22.33423,-12.93333 48.45429,-28.33333 z"
         style="fill:#ececec;fill-opacity:1;stroke:#ececec;stroke-width:1.43700004;stroke-miterlimit:4;stroke-dasharray:none;stroke-opacity:1" />
      <path
         inkscape:connector-curvature="0"
         id="path861"
         d="m 239.56699,354.78416 c -14.1925,-2.97405 -26.25633,-8.20839 -38.72527,-16.80239 -7.44399,-5.13063 -21.28135,-18.80606 -21.26617,-21.01729 0.005,-0.68585 3.17457,-3.20022 7.04414,-5.58751 l 7.03557,-4.34052 7.80328,7.45522 c 26.92893,25.72774 65.64106,30.62998 98.08053,12.42024 9.00121,-5.05279 23.94705,-19.49829 28.88253,-27.91563 8.39951,-14.32516 11.57167,-26.18391 11.57687,-43.27879 0.005,-14.9551 -1.94639,-23.60606 -8.0716,-35.79149 -5.00105,-9.94903 -8.73817,-15.15443 -16.05771,-22.36667 -31.82178,-31.35528 -83.59329,-30.98176 -115.40769,0.83264 l -6.91144,6.91145 -6.99152,-4.5228 c -3.84534,-2.48753 -6.99152,-5.17615 -6.99152,-5.9747 0,-2.33993 14.8852,-16.69372 22.69798,-21.88765 9.77117,-6.49586 20.67852,-11.3843 32.18313,-14.42378 8.18564,-2.16262 11.77945,-2.54129 24.11889,-2.54129 12.45984,0 15.90701,0.37026 24.5,2.63151 37.56612,9.88556 65.86004,39.67498 73.73102,77.62813 1.62656,7.84314 1.87696,11.95199 1.43239,23.50465 -0.65545,17.03244 -3.34181,27.99664 -10.18547,41.57125 -12.5376,24.86869 -36.70317,44.49921 -63.97794,51.97148 -10.18191,2.78946 -34.48852,3.62186 -44.5,1.52394 z m 43.5,-5.50992 c 16.93646,-4.57829 32.91536,-14.2953 45.5,-27.66923 11.2405,-11.9455 17.53175,-23.0352 22.62842,-39.88752 2.48462,-8.21545 2.72327,-10.43834 2.73778,-25.5 0.019,-19.71218 -1.54131,-26.82273 -9.37157,-42.70785 -29.25185,-59.34272 -106.15837,-72.43646 -153.32495,-26.10438 l -7.04214,6.91754 4.37425,2.89587 4.37425,2.89588 7.19452,-6.83409 c 15.70346,-14.91676 36.29573,-23.06297 58.29931,-23.06297 24.09356,0 45.50246,9.20058 62.28602,26.76775 45.15696,47.26525 22.87653,125.27875 -40.65589,142.35403 -11.17175,3.00257 -31.68082,3.04838 -42.59339,0.0951 -14.73549,-3.98783 -27.30201,-10.97853 -38.40513,-21.36459 l -6.03759,-5.64769 -4.30794,2.54411 -4.30794,2.5441 6.326,6.43921 c 13.73671,13.98256 29.85457,22.7083 49.45881,26.77557 10.16104,2.10809 32.49822,1.35208 42.86718,-1.45087 z"
         style="fill:#ececec;fill-opacity:1;stroke:#ececec;stroke-width:1.43700004;stroke-miterlimit:4;stroke-dasharray:none;stroke-opacity:1" />
      <path
         inkscape:connector-curvature="0"
         id="path863"
         d="m 246.06699,346.15156 c -20.17151,-2.70073 -41.83849,-14.20218 -53.89425,-28.60862 -2.42547,-2.8984 -2.49882,-3.22461 -0.84324,-3.75007 1.26876,-0.40269 3.45365,0.96525 7.27541,4.55508 18.06855,16.97206 39.05137,24.68761 64.23292,23.61898 22.1554,-0.94021 40.62516,-8.97292 56.44411,-24.54817 25.07108,-24.68484 32.57365,-61.81623 19.11266,-94.59155 -10.1744,-24.77302 -32.0008,-43.56173 -58.99098,-50.78091 -11.64667,-3.11519 -29.84494,-3.10448 -41.67326,0.0245 -15.23081,4.02907 -28.01071,11.15688 -39.39668,21.97294 -4.61462,4.38365 -6.00877,5.21772 -7.14508,4.27467 -1.18,-0.97932 -0.81337,-1.83986 2.23331,-5.24193 4.51882,-5.04592 14.01342,-12.66309 20.66993,-16.58274 25.36804,-14.93784 60.90433,-15.21727 87.33933,-0.68677 29.80456,16.38264 47.41351,46.06067 47.41351,79.91051 0,26.01362 -9.36664,47.78809 -28.40163,66.02478 -12.17313,11.66261 -26.99569,19.63468 -42.61657,22.92063 -9.38751,1.97473 -23.26922,2.6254 -31.75949,1.48866 z"
         style="fill:#ececec;fill-opacity:1;stroke:#ececec;stroke-width:1.43700004;stroke-miterlimit:4;stroke-dasharray:none;stroke-opacity:1" />
      <path
         inkscape:connector-curvature="0"
         id="path865"
         d="m 88.298223,224.23572 c -2.582723,-0.20984 -2.947411,-0.28 -3.374857,-0.64928 -0.439867,-0.38001 -0.44105,-0.38885 -0.157558,-1.17838 1.234755,-3.43879 3.639566,-16.22791 3.656435,-19.44543 0.0043,-0.82644 0.08738,-1.60204 0.184545,-1.72358 0.09717,-0.12153 0.416388,-0.22097 0.70938,-0.22097 h 0.532713 l -0.120548,-0.83969 c -0.34366,-2.39378 -0.342665,-2.45746 0.04444,-2.84457 0.681841,-0.68184 1.304721,-2.14378 3.454647,-8.10828 3.674685,-10.19462 10.8601,-23.38801 18.10992,-33.25224 3.8067,-5.17947 5.78676,-8.37439 5.72142,-9.23182 -0.0509,-0.66757 0.50199,-1.12011 1.18512,-0.97007 0.74935,0.16459 1.75362,-0.56423 3.97694,-2.8861 0.98246,-1.02601 3.01608,-3.12231 4.51914,-4.65843 l 2.73285,-2.79295 h 0.92628 0.92628 l -2.69092,2.69584 c -1.48001,1.48272 -3.77126,3.80954 -5.09166,5.17072 -1.32041,1.36118 -3.14837,3.19082 -4.06214,4.06586 -1.25693,1.20367 -2.1476,2.3011 -3.65853,4.50781 -1.09842,1.60425 -2.95083,4.22938 -4.11646,5.83363 -6.82985,9.39989 -13.800642,22.36898 -17.38796,32.35014 -0.64647,1.7987 -1.627371,4.38406 -2.17978,5.74524 -0.968056,2.38537 -1.004915,2.53561 -1.019195,4.15425 -0.01689,1.91405 -0.13565,2.41246 -0.610792,2.56326 -0.184508,0.0586 -0.378322,0.24162 -0.430699,0.40679 -0.05238,0.16518 -0.450814,2.40838 -0.885416,4.9849 -0.89261,5.2918 -1.400721,7.87426 -2.338698,11.88637 -0.357764,1.53031 -0.601112,2.83174 -0.540774,2.89208 0.248761,0.24876 6.007366,0.43511 10.382771,0.33598 6.175543,-0.1399 10.134793,-0.38878 11.239663,-0.70651 1.5393,-0.44266 1.68423,-0.68307 2.34485,-3.8897 1.75719,-8.52936 3.90927,-17.52169 5.33222,-22.28034 6.77979,-22.67299 21.46412,-42.99196 42.64676,-59.01107 l 2.25492,-1.70525 1.10384,0.01 1.10384,0.01 -0.51574,0.38793 c -0.28366,0.21336 -1.75532,1.31391 -3.27037,2.44567 -20.357,15.20699 -35.2465,35.69124 -41.88114,57.61805 -1.56609,5.17578 -3.68579,14.02861 -5.79552,24.20474 -0.36709,1.77065 -0.59408,2.48596 -0.8796,2.77195 -0.73762,0.73884 -2.66351,1.02916 -8.5572,1.28997 -3.653084,0.16166 -11.843599,0.20032 -13.523416,0.0638 z"
         style="fill:#ececec;fill-opacity:1;stroke:#ececec;stroke-width:0.25402811;stroke-miterlimit:4;stroke-dasharray:none;stroke-opacity:1" />
      <path
         inkscape:connector-curvature="0"
         id="path867"
         d="m 79.164148,229.87924 -1.002347,-0.0634 -0.118046,-0.6987 c -0.06493,-0.38429 -0.06419,-1.0368 0.0016,-1.45001 0.772691,-4.851 5.125499,-25.63967 6.546812,-31.26707 1.961436,-7.76591 4.129557,-13.54075 8.122083,-21.63336 6.378153,-12.92813 14.65192,-24.76636 25.60566,-36.63697 l 2.48763,-2.69584 h 0.97737 0.97737 l -1.51625,1.54679 c -7.17118,7.3157 -14.85058,17.10365 -20.70021,26.38393 -6.497404,10.30797 -11.884637,22.25175 -14.192818,31.46625 -2.291277,9.14702 -6.982028,31.37295 -6.982028,33.08257 0,0.45819 0.04671,0.48188 1.193242,0.60516 2.867948,0.30838 24.067944,-0.16609 28.488334,-0.63758 2.6829,-0.28617 4.16973,-1.33762 5.47157,-3.86939 1.24567,-2.42255 1.8357,-4.59125 3.29792,-12.12181 1.6253,-8.37042 3.3304,-14.56614 5.74072,-20.85965 8.16362,-21.31579 23.09979,-39.37519 44.24553,-53.49749 l 3.14256,-2.09878 h 1.14427 c 0.62935,0 1.14428,0.0315 1.14428,0.0701 0,0.0386 -0.61651,0.45044 -1.37002,0.91532 -8.92188,5.50431 -19.19804,13.92796 -25.88329,21.21723 -14.5599,15.87541 -22.79286,32.59621 -26.93075,54.69522 -1.73185,9.2492 -2.84201,12.48267 -5.0365,14.66933 -1.26058,1.25609 -2.4626,1.82662 -4.86532,2.3093 -1.67708,0.33691 -2.81531,0.40882 -8.39257,0.53025 -6.358186,0.13843 -19.641835,0.16216 -21.596828,0.0386 z"
         style="fill:#ececec;fill-opacity:1;stroke:#ececec;stroke-width:0.25402811;stroke-miterlimit:4;stroke-dasharray:none;stroke-opacity:1" />
      <path
         inkscape:connector-curvature="0"
         id="path869"
         d="m 87.856281,224.00181 c -1.993636,-0.16041 -2.7777,-0.37198 -2.939312,-0.79314 -0.056,-0.14594 0.06104,-0.80342 0.260099,-1.46105 1.234828,-4.07957 3.350365,-15.54354 3.401297,-18.43144 0.03006,-1.70464 0.156629,-2.02245 0.831659,-2.08833 0.653858,-0.0638 0.656256,-0.0769 0.378632,-2.07298 -0.175877,-1.26452 -0.164149,-1.38486 0.16959,-1.74011 0.475079,-0.5057 1.37996,-2.50224 2.412925,-5.3239 2.478711,-6.77089 4.220207,-10.78347 7.135222,-16.44023 3.552427,-6.89372 7.252227,-12.94168 11.792747,-19.27727 4.34143,-6.05781 5.90207,-8.57549 5.90207,-9.52143 0,-0.47723 0.60519,-1.01619 0.97969,-0.87248 0.12759,0.049 0.57835,-0.0642 1.00168,-0.25145 0.81532,-0.36066 1.83942,-1.3286 7.19743,-6.80273 3.00436,-3.06948 3.29064,-3.31457 3.87161,-3.31457 0.6128,0 0.4737,0.1549 -5.9926,6.67332 -5.52065,5.56516 -6.85648,7.01091 -8.04429,8.70626 -0.78338,1.11811 -2.59982,3.69112 -4.03654,5.7178 -8.19438,11.55925 -13.858132,22.08566 -18.374412,34.14992 -0.727,1.94203 -1.656161,4.406 -2.064801,5.4755 -0.648137,1.69631 -0.754945,2.17853 -0.836695,3.77747 -0.08615,1.68502 -0.131824,1.87193 -0.565968,2.31605 -0.387658,0.39657 -0.528949,0.8124 -0.788736,2.32132 -0.976886,5.67404 -1.941556,10.76011 -2.673288,14.09446 -0.578473,2.63599 -0.771628,3.8269 -0.641755,3.95677 0.378733,0.37873 6.780299,0.54773 12.760678,0.33687 8.453567,-0.29806 10.058947,-0.5584 10.663867,-1.72935 0.25482,-0.49326 0.65101,-2.14054 1.69375,-7.04237 1.72899,-8.12777 3.78774,-16.22644 5.25778,-20.68287 7.24563,-21.96519 21.66375,-41.31044 42.34189,-56.81147 1.57045,-1.17726 1.7697,-1.27692 2.45187,-1.22634 l 0.74251,0.0551 -1.4583,1.04214 c -8.24697,5.89354 -17.24562,14.32969 -23.77879,22.29239 -6.34151,7.7291 -11.65928,16.24782 -15.54798,24.90687 -3.7806,8.41835 -5.92726,15.80012 -9.72144,33.42944 -0.52314,2.43068 -1.0333,4.63436 -1.13371,4.89708 -0.35297,0.92359 -1.61061,1.25517 -5.85459,1.54362 -3.60641,0.24511 -14.572066,0.36994 -16.793789,0.19118 z"
         style="fill:#ececec;fill-opacity:1;stroke:#ececec;stroke-width:0.25402811;stroke-miterlimit:4;stroke-dasharray:none;stroke-opacity:1" />
      <path
         inkscape:connector-curvature="0"
         id="path871"
         d="m 91.453629,193.80886 c 0,-0.0468 0.08328,-0.2954 0.185068,-0.55242 0.101788,-0.25702 0.582998,-1.56112 1.069355,-2.89799 1.786577,-4.91085 3.099688,-7.95585 5.564966,-12.9047 4.005112,-8.03995 7.952622,-14.56525 13.260812,-21.92031 3.89551,-5.39764 5.30415,-7.69039 5.43432,-8.84509 0.0298,-0.26393 0.0916,-0.55286 0.1374,-0.64205 0.13224,-0.25737 0.6624,-0.43624 1.09898,-0.37077 0.84517,0.12674 1.67135,-0.51667 4.71476,-3.67179 5.01927,-5.2035 7.00632,-7.13442 10.91655,-10.60819 5.2641,-4.67652 12.09542,-10.03872 17.4205,-13.67412 l 0.80349,-0.54854 h 1.22176 1.22176 l -1.58331,1.07499 c -6.07923,4.12748 -12.60419,9.22553 -18.3717,14.35409 -2.48527,2.20994 -2.67824,2.39744 -6.89968,6.70426 -2.18761,2.23185 -5.17173,5.24022 -6.63138,6.68526 -2.84454,2.81607 -3.40043,3.46539 -5.2178,6.0948 -0.6216,0.89935 -2.15047,3.06708 -3.39748,4.81717 -3.94795,5.54066 -6.13931,8.96935 -9.12332,14.27472 -3.897126,6.92883 -6.702117,12.99158 -9.354445,20.21883 -0.835855,2.2776 -0.934162,2.49697 -1.11896,2.49697 -0.111428,0 -0.202597,-0.0308 -0.202597,-0.0684 0,-0.1123 2.144529,-5.6901 2.811283,-7.312 2.725611,-6.6301 5.724129,-12.60253 9.385759,-18.69453 2.8879,-4.80471 5.02546,-7.99495 10.68354,-15.94483 2.03541,-2.85984 2.65818,-3.54128 10.26707,-11.23419 3.17901,-3.21412 4.59417,-4.70105 4.59417,-4.82716 0,-0.14079 -0.3909,-0.0818 -0.7071,0.10669 -0.17015,0.10144 -2.27821,2.16134 -4.68459,4.57758 -2.40637,2.41623 -4.60284,4.56448 -4.88104,4.77388 -0.6177,0.46494 -1.40486,0.79998 -1.8861,0.8028 -0.52671,0.003 -0.92264,0.43591 -0.92264,1.00863 0,0.29427 -0.69433,1.66928 -1.46649,2.90415 -0.83669,1.33807 -1.62932,2.49521 -4.22339,6.16559 -5.28322,7.4753 -8.55436,12.84833 -12.349716,20.28512 -2.58971,5.0744 -3.997819,8.3095 -6.388675,14.67787 -0.509909,1.35821 -0.953969,2.53908 -0.986799,2.62415 -0.06198,0.16061 -0.394331,0.21924 -0.394331,0.0696 z m 26.201911,-47.90025 c -0.0544,-0.0544 -0.30385,0.17781 -0.40931,0.38098 -0.0683,0.13151 -0.0185,0.10836 0.17424,-0.0811 0.14837,-0.14584 0.25416,-0.28078 0.23507,-0.29986 z m 11.91768,-10.17642 c 0.22798,-0.139 0.24945,-0.17392 0.10709,-0.17419 -0.11175,-1.7e-4 -0.60542,0.43405 -1.32582,1.16627 l -1.14777,1.1666 1.04068,-0.99241 c 0.57237,-0.54582 1.16899,-1.07065 1.32582,-1.16627 z m 0.85967,0.48839 0.65849,-0.66291 h -0.28505 c -0.22424,0 -0.28505,0.037 -0.28505,0.17334 0,0.0953 -0.17945,0.39364 -0.39877,0.66291 -0.21932,0.26927 -0.38736,0.48958 -0.37343,0.48958 0.0139,0 0.32164,-0.29831 0.68381,-0.66292 z"
         style="fill:#ececec;fill-opacity:1;stroke:#ececec;stroke-width:0.12701406;stroke-miterlimit:4;stroke-dasharray:none;stroke-opacity:1" />
      <path
         inkscape:connector-curvature="0"
         id="path873"
         d="m 85.178057,193.8249 c 0,-0.038 0.141728,-0.56501 0.314952,-1.17115 1.662542,-5.81746 3.896433,-11.38272 7.343035,-18.29359 2.329175,-4.67029 4.325082,-8.22829 7.040742,-12.55115 6.090734,-9.6954 14.573344,-20.20803 22.825674,-28.28822 6.36955,-6.23668 11.14296,-10.4302 17.38592,-15.27384 l 1.39118,-1.07935 1.10187,0.0247 1.10187,0.0247 -1.56247,1.19324 c -4.41613,3.37256 -8.55997,6.83784 -12.74777,10.66029 -1.99735,1.82309 -6.45318,6.13068 -6.45318,6.23849 0,0.0479 -0.84897,0.96864 -1.88659,2.04608 -3.25676,3.38172 -5.60816,6.02786 -8.41696,9.472 -5.54769,6.80255 -10.55122,13.95868 -14.401187,20.5968 -4.906943,8.46056 -9.009066,17.7274 -11.174064,25.24259 -0.186331,0.6468 -0.3876,1.19227 -0.447266,1.21215 -0.06988,0.0233 -0.09126,-0.0226 -0.06009,-0.12897 0.02662,-0.0908 0.173007,-0.60266 0.325309,-1.13741 1.970897,-6.92004 6.030571,-16.23686 10.495061,-24.08583 4.541767,-7.98482 10.388277,-16.25716 17.116447,-24.2184 2.05035,-2.42611 3.7188,-4.26921 6.26099,-6.91639 l 1.76132,-1.83406 h -0.83995 -0.83995 l -1.76072,1.92245 c -3.44309,3.75936 -4.93879,5.45948 -7.13459,8.10963 -6.52768,7.87838 -11.7919,15.59256 -16.526854,24.21841 -1.056484,1.92463 -3.982777,7.83246 -4.947246,9.98788 -2.038875,4.55653 -3.679881,9.05445 -4.958023,13.58971 -0.07878,0.27953 -0.180184,0.50823 -0.225348,0.50823 -0.04516,0 -0.08212,-0.0311 -0.08212,-0.0691 z"
         style="fill:#ececec;fill-opacity:1;stroke:#ececec;stroke-width:0.12701406;stroke-miterlimit:4;stroke-dasharray:none;stroke-opacity:1" />
      <path
         inkscape:connector-curvature="0"
         id="path875"
         d="m 129.01868,137.89804 c 0,-0.11549 2.98521,-3.09693 3.04299,-3.03915 0.0243,0.0243 -0.65044,0.73794 -1.49941,1.58587 -0.84897,0.84793 -1.54358,1.50191 -1.54358,1.45328 z"
         style="fill:#ececec;fill-opacity:1;stroke:#ececec;stroke-width:0.12701406;stroke-miterlimit:4;stroke-dasharray:none;stroke-opacity:1" />
      <path
         inkscape:connector-curvature="0"
         id="path877"
         d=""
         style="fill:#ececec;fill-opacity:1;stroke:#ececec;stroke-width:0.12701406;stroke-miterlimit:4;stroke-dasharray:none;stroke-opacity:1" />
      <g
         inkscape:label="Logo"
         id="g67"
         transform="matrix(4.8095238,0,0,4.8095238,140.5728,137.94695)"
         style="display:inline">
        <path
           inkscape:connector-curvature="0"
           style="opacity:0.19444442;fill:none;stroke-width:1px;stroke-linecap:round;stroke-linejoin:miter;stroke-opacity:1"
           d="m 37.756513,11.747296 c 0,0 5.140615,5.035338 5.157002,12.720854 0.01653,7.751769 -5.355349,12.985871 -5.355349,12.985871"
           id="path5667"
           sodipodi:nodetypes="czc" />
        <path
           inkscape:connector-curvature="0"
           style="opacity:0.18981479;fill:none;stroke:#ffffff;stroke-width:1px;stroke-linecap:round;stroke-linejoin:miter;stroke-opacity:1"
           d="m 30.616047,16.915142 c 0,0 3.686577,2.501111 3.636349,7.685516 -0.04959,5.118158 -3.636349,7.28799 -3.636349,7.28799"
           id="path5669"
           sodipodi:nodetypes="czc" />
        <path
           inkscape:connector-curvature="0"
           style="fill:#ececec;fill-opacity:1;fill-rule:evenodd;stroke:#ececec;stroke-width:0.99999988px;stroke-linecap:butt;stroke-linejoin:miter;stroke-opacity:1"
           d="M 3.033391,11.648109 24.671136,24.418378 3.016816,37.198431 Z"
           id="path5070" />
        <path
           inkscape:connector-curvature="0"
           style="opacity:0.18055558;fill:none;stroke:#ececec;stroke-width:0.99999988px;stroke-linecap:butt;stroke-linejoin:miter;stroke-opacity:1"
           d="M 4.04192,13.453223 22.5645,24.420891 4.027734,35.311401 Z"
           id="path5665"
           sodipodi:nodetypes="cccc" />
        <path
           inkscape:connector-curvature="0"
           style="opacity:0.32407406;fill:none;stroke:#ffffff;stroke-width:1px;stroke-linecap:round;stroke-linejoin:miter;stroke-opacity:1"
           d="m 38.153525,11.23664 c 0,0 5.427094,5.46394 5.427094,13.24865 0,7.850944 -5.427094,13.182407 -5.427094,13.182407"
           id="path5689"
           sodipodi:nodetypes="czc" />
        <path
           inkscape:connector-curvature="0"
           style="opacity:0.32407406;fill:none;stroke:#ffffff;stroke-width:1px;stroke-linecap:round;stroke-linejoin:miter;stroke-opacity:1"
           d="m 33.305222,17.049165 c 0,0 2.779731,2.878431 2.779731,7.220514 0,4.27587 -2.514994,7.220514 -2.514994,7.220514"
           id="path5691"
           sodipodi:nodetypes="czc" />
        <path
           inkscape:connector-curvature="0"
           style="fill:#ececec;fill-opacity:1;stroke:#ececec;stroke-width:1;stroke-linecap:round;stroke-linejoin:round;stroke-miterlimit:4;stroke-dasharray:none;stroke-dashoffset:0;stroke-opacity:1"
           d="m 44.983184,24.545684 c 0,-11.316001 -9.170001,-20.5 -20.46875,-20.5 -6.524212,0 -12.313471,3.0771446 -16.0625,7.84375 l 2.5625,1.625 c 3.198502,-3.9147617 8.085497,-6.40625 13.53125,-6.40625 9.625499,-10e-8 17.4375,7.812 17.4375,17.4375 0,9.6255 -7.812,17.4375 -17.4375,17.4375 -5.430049,0 -10.301145,-2.47967 -13.5,-6.375 l -2.5625,1.625 c 3.749919,4.746873 9.522794,7.8125 16.03125,7.8125 11.29875,0 20.46875,-9.183999 20.46875,-20.5 z"
           id="path5067" />
        <path
           inkscape:connector-curvature="0"
           style="fill:#ececec;fill-opacity:1;stroke:#ececec;stroke-width:1;stroke-linecap:round;stroke-linejoin:round;stroke-miterlimit:4;stroke-dasharray:none;stroke-dashoffset:0;stroke-opacity:1"
           d="m 37.045684,24.576934 c 0,-6.91725 -5.614001,-12.53125 -12.53125,-12.53125 -3.682751,0 -6.987847,1.592947 -9.28125,4.125 l 2.65625,1.65625 c 1.708502,-1.687387 4.044211,-2.71875 6.625,-2.71875 5.226749,0 9.46875,4.27 9.46875,9.53125 0,5.261251 -4.242001,9.53125 -9.46875,9.53125 -2.628895,10e-7 -5.002549,-1.069255 -6.71875,-2.8125 l -2.5625,1.625 c 2.293403,2.532054 5.598499,4.125001 9.28125,4.125 6.91725,0 12.53125,-5.614 12.53125,-12.53125 z"
           id="path5648" />
        <path
           inkscape:connector-curvature="0"
           style="opacity:0.33333333;fill:none;stroke:#ececec;stroke-width:1.00000012;stroke-linecap:round;stroke-linejoin:round;stroke-miterlimit:4;stroke-dasharray:none;stroke-dashoffset:0;stroke-opacity:1"
           d="m 10.045238,37.420684 c 3.560547,4.071766 8.326523,6.5625 14.45318,6.5625 10.721091,0 19.422266,-8.721999 19.422266,-19.46875 0,-10.74675 -8.701175,-19.46875 -19.422266,-19.46875 -6.157926,0 -10.831105,2.5141711 -14.452732,6.6875"
           id="path5664"
           sodipodi:nodetypes="cscsc" />
        <path
           inkscape:connector-curvature="0"
           style="opacity:0.33333333;fill:none;stroke:#ececec;stroke-width:1;stroke-linecap:round;stroke-linejoin:round;stroke-miterlimit:4;stroke-dasharray:none;stroke-dashoffset:0;stroke-opacity:1"
           d="m 16.826934,33.201934 c 2.164413,1.898506 4.331161,2.843749 7.625,2.84375 6.36525,0 11.53125,-5.152 11.53125,-11.5 0,-6.348 -5.166,-11.5 -11.53125,-11.5 -3.309727,0 -5.552652,1.207783 -7.65625,3.125"
           id="path5677"
           sodipodi:nodetypes="cscsc" />
      </g>
    </g>
  </g>
</svg>
